<?xml version="1.0" standalone="no"?>
<!DOCTYPE svg PUBLIC "-//W3C//DTD SVG 20010904//EN"
 "http://www.w3.org/TR/2001/REC-SVG-20010904/DTD/svg10.dtd">
<svg version="1.0" xmlns="http://www.w3.org/2000/svg"
 width="449.000000pt" height="466.000000pt" viewBox="0 0 449.000000 466.000000"
 preserveAspectRatio="xMidYMid meet">

<g transform="translate(0.000000,466.000000) scale(0.100000,-0.100000)"
fill="#000000" stroke="none">
<path d="M60 2310 l0 -2270 2175 2 2175 3 0 2260 c0 1243 0 2263 0 2268 0 4
-979 7 -2175 7 l-2175 0 0 -2270z m2078 2024 c13 -9 22 -26 22 -41 0 -43 -39
-112 -79 -139 -35 -24 -109 -50 -117 -41 -2 2 7 41 20 87 19 66 22 88 13 107
-9 19 -8 26 4 34 23 15 112 11 137 -7z m222 12 c0 -25 -17 -36 -55 -36 -30 0
-45 -5 -49 -16 -11 -28 -7 -34 24 -34 41 0 29 -26 -17 -37 -23 -5 -39 -16 -44
-31 -8 -20 -6 -22 31 -22 22 0 40 -3 40 -7 -1 -21 -21 -31 -77 -36 -76 -6 -76
-6 -32 100 23 54 28 77 20 82 -6 4 -9 15 -5 24 5 14 21 17 85 17 43 0 79 -2
79 -4z m276 -52 c19 -9 36 -24 39 -34 9 -28 -30 -95 -68 -119 -42 -26 -126
-44 -155 -34 -21 8 -21 10 26 83 34 54 46 83 44 104 -4 29 -3 29 39 22 24 -4
57 -14 75 -22z m-875 -50 c9 -28 20 -74 24 -103 6 -44 4 -54 -11 -66 -28 -22
-34 -18 -34 20 0 31 -2 34 -22 26 -17 -6 -24 -18 -26 -42 -3 -30 -24 -58 -45
-59 -20 0 35 240 60 266 23 22 35 13 54 -42z m-158 -231 c-24 -18 -26 -17 -47
22 -35 65 -47 65 -40 -2 5 -48 3 -61 -11 -73 -26 -22 -35 3 -35 105 0 59 -4
95 -12 104 -11 10 -9 15 6 27 11 8 23 14 26 14 4 0 22 -21 41 -47 l34 -48 3
60 c2 42 8 64 20 73 16 12 18 4 24 -105 7 -104 5 -120 -9 -130z m1215 227 c38
-10 41 -13 32 -31 -7 -12 -18 -18 -28 -15 -12 4 -30 -10 -60 -48 -46 -59 -50
-73 -26 -78 12 -2 13 -6 2 -20 -12 -16 -17 -16 -76 -1 -59 15 -62 17 -46 34 9
10 21 16 28 13 6 -2 35 23 65 56 49 56 52 62 32 67 -11 3 -21 8 -21 12 0 14
25 31 40 27 8 -3 34 -10 58 -16z m122 -62 c0 -6 -14 -35 -30 -65 -17 -29 -28
-53 -25 -53 2 0 32 18 67 40 34 22 68 38 76 35 7 -3 18 -5 24 -5 10 0 -62 -55
-152 -117 -34 -23 -53 -29 -77 -26 l-32 5 50 99 c42 86 53 99 74 99 14 0 25
-5 25 -12z m-1541 -70 c33 -35 54 -102 46 -144 -15 -82 -103 -121 -159 -69
-70 65 -59 172 22 214 48 26 67 26 91 -1z m1835 -102 c71 -56 96 -84 96 -107
0 -36 -28 -59 -72 -59 l-38 0 0 -45 c0 -46 -10 -54 -39 -36 -10 7 -12 21 -7
59 3 28 3 53 -2 56 -5 3 -24 -5 -42 -19 -27 -20 -36 -22 -56 -13 -21 10 -23
13 -10 27 8 9 42 32 74 51 39 22 63 44 70 63 9 24 9 27 -3 17 -10 -9 -23 -5
-53 14 -38 24 -41 24 -56 7 -16 -17 -15 -19 10 -36 25 -16 26 -18 9 -28 -13
-7 -25 -5 -44 6 -24 14 -28 14 -49 -3 l-22 -19 30 -17 c33 -20 36 -27 18 -42
-9 -7 -30 0 -71 23 l-58 32 36 32 c20 17 54 44 76 58 27 18 36 30 30 36 -7 7
-5 15 7 23 14 11 26 8 72 -18 30 -17 72 -45 94 -62z m-734 19 c116 -26 215
-61 335 -119 428 -209 726 -626 786 -1102 14 -118 7 -337 -16 -453 -45 -230
-156 -459 -314 -648 l-52 -63 -29 22 c-26 19 -37 20 -111 14 l-83 -7 55 53
c217 211 345 470 380 771 44 378 -102 775 -382 1042 -66 62 -75 75 -79 114
l-5 44 -186 121 c-115 74 -192 131 -202 148 l-16 28 -383 0 c-235 0 -378 4
-373 9 9 8 70 22 195 45 61 11 407 -3 480 -19z m-1310 -56 c6 -22 8 -49 4 -61
-4 -12 -2 -18 4 -14 16 9 23 -37 8 -54 -7 -8 -16 -37 -19 -63 l-5 -49 44 43
c24 23 46 41 48 38 2 -2 7 -15 11 -29 5 -21 -4 -35 -59 -89 l-65 -65 -16 37
c-8 20 -15 53 -15 72 0 22 -4 34 -10 30 -19 -11 -23 25 -5 45 10 11 19 41 22
67 l5 48 -47 -47 -46 -48 -11 26 c-11 23 -7 29 57 94 38 38 72 67 76 64 5 -3
13 -23 19 -45z m564 -26 c3 -21 6 -62 6 -91 0 -48 -2 -53 -26 -62 -261 -100
-519 -340 -654 -610 -86 -171 -124 -339 -124 -550 -1 -217 34 -372 126 -559
100 -204 296 -414 491 -526 43 -25 47 -30 47 -65 0 -42 -1 -42 -115 -55 l-60
-7 -75 53 c-102 72 -262 235 -336 344 -351 516 -338 1178 34 1673 107 143 279
295 429 378 61 34 229 112 244 113 4 1 9 -16 13 -36z m716 21 l115 -7 3 -95
c2 -52 8 -105 12 -118 5 -12 37 -55 71 -96 l62 -73 -84 82 -84 83 -390 2 -390
3 -10 119 -10 119 295 -7 c162 -3 347 -9 410 -12z m949 -125 c32 -11 37 -23
22 -48 -7 -10 -13 -11 -30 -1 -26 13 -51 -1 -51 -30 0 -9 -10 -30 -22 -45 -19
-24 -26 -27 -65 -22 -54 6 -72 20 -56 45 6 9 19 16 29 14 55 -9 58 -8 72 33
13 40 35 65 57 65 7 0 26 -5 44 -11z m-2506 -156 c57 -75 77 -115 77 -153 0
-36 -38 -80 -70 -80 -28 0 -92 61 -121 114 -19 37 -21 47 -10 60 11 13 18 8
51 -42 21 -31 49 -63 61 -71 20 -12 24 -11 35 4 16 22 11 34 -46 120 -39 57
-45 73 -36 88 6 9 12 17 13 17 1 0 22 -26 46 -57z m2636 13 c41 -42 42 -44 22
-51 -12 -4 -28 -2 -35 5 -11 8 -30 4 -80 -16 -64 -25 -77 -36 -56 -49 6 -4 8
-11 5 -16 -12 -19 -41 -7 -83 33 -34 31 -41 43 -30 49 18 12 32 11 45 -2 8 -8
19 -7 39 4 16 8 49 20 72 27 41 11 43 12 28 29 -9 10 -13 21 -9 24 15 16 42 4
82 -37z m67 -122 c37 -18 79 -91 70 -121 -9 -27 -70 -64 -115 -70 -131 -18
-193 121 -83 185 44 26 82 28 128 6z m118 -21 c46 -35 48 -52 6 -53 -15 0 -90
68 -90 82 0 19 40 5 84 -29z m-2978 -71 l-16 -31 85 -82 c73 -72 84 -86 78
-108 -3 -15 -8 -30 -11 -34 -5 -11 -80 60 -133 126 l-38 48 -16 -37 c-15 -36
-16 -37 -35 -19 -23 21 -22 27 27 134 l34 75 20 -21 c20 -19 20 -22 5 -51z
m1604 -12 c0 -19 -6 -20 -92 -19 -102 1 -139 8 -146 27 -3 9 26 12 117 12 114
0 121 -1 121 -20z m391 2 c-5 -10 -28 -27 -50 -37 -38 -17 -42 -17 -59 -2 -10
10 -34 17 -53 17 l-34 0 25 20 c20 16 41 20 103 20 72 0 77 -1 68 -18z m-117
-78 c5 -14 4 -15 -9 -4 -17 14 -19 20 -6 20 5 0 12 -7 15 -16z m1125 -36 c13
-21 12 -24 -14 -43 -77 -56 -76 -54 -8 -55 50 0 64 -4 72 -19 9 -17 3 -18
-106 -25 -80 -4 -120 -3 -129 5 -15 12 -19 39 -6 39 4 0 25 11 47 25 l40 25
-57 -2 c-45 -1 -62 3 -79 18 l-21 19 28 6 c16 4 66 7 111 8 45 0 85 6 88 11
10 15 19 12 34 -12z m-1779 -94 c0 -8 -5 -35 -11 -60 -9 -34 -18 -48 -37 -55
-14 -5 -27 -7 -29 -5 -3 3 3 29 12 58 9 29 18 59 20 66 6 18 45 15 45 -4z
m690 -65 c0 -24 -23 -99 -30 -99 -18 0 -40 13 -40 24 0 6 5 28 11 49 8 30 15
37 34 37 14 0 25 -5 25 -11z m-651 -195 c2 -2 -7 -12 -20 -23 -17 -15 -39 -20
-76 -21 -29 0 -53 2 -53 5 0 2 16 15 36 29 28 19 44 23 73 19 20 -3 38 -7 40
-9z m459 -24 c12 -20 10 -20 -103 -20 -108 0 -115 1 -115 20 0 19 7 20 103 20
91 0 104 -2 115 -20z m-58 -90 l-145 -47 -350 -7 c-192 -4 -347 -5 -345 -3 5
5 259 97 266 97 2 0 4 -9 4 -20 0 -11 -3 -19 -7 -19 -5 1 -15 1 -23 0 -26 -2
11 -21 42 -21 31 0 45 15 23 24 -8 3 -15 15 -15 26 0 20 5 20 348 19 l347 -1
-145 -48z m-172 -185 l2 -90 73 -68 72 -68 -84 61 -85 60 -374 0 -375 0 7 46
c3 26 6 69 6 95 l0 49 208 3 c114 1 284 3 377 2 l170 0 3 -90z m63 -261 l129
-7 0 -432 0 -432 -96 -15 c-54 -9 -103 -23 -113 -32 -14 -13 -24 -14 -44 -7
-39 15 -382 -42 -419 -69 -16 -12 -29 -16 -33 -10 -3 6 -17 10 -29 10 -21 0
-24 6 -30 61 -3 34 -6 134 -6 223 0 108 -4 156 -10 146 -5 -8 -10 -78 -11
-155 -1 -77 -5 -171 -9 -210 -5 -38 -6 151 -3 420 3 296 9 495 15 502 11 14
445 18 659 7z m-268 -1201 c6 -33 3 -38 -18 -30 -19 8 -20 57 -1 57 7 0 16
-12 19 -27z"/>
<path d="M2051 4305 c4 -3 -2 -34 -12 -68 -10 -33 -17 -63 -14 -65 2 -2 17 5
32 16 61 43 72 114 18 120 -16 2 -27 1 -24 -3z"/>
<path d="M2570 4260 c0 -6 -14 -32 -31 -56 -34 -50 -33 -60 6 -50 66 17 103
106 48 114 -13 2 -23 -2 -23 -8z"/>
<path d="M1718 4224 c-3 -5 -9 -23 -12 -41 -7 -28 -5 -31 13 -26 12 3 21 13
20 22 -1 25 -15 56 -21 45z"/>
<path d="M1322 4063 c-21 -8 -44 -62 -36 -86 16 -55 65 -74 97 -39 23 25 21
74 -4 106 -20 26 -31 29 -57 19z"/>
<path d="M3227 3920 c-18 -18 -18 -19 1 -29 31 -17 52 -13 52 9 0 30 -31 41
-53 20z"/>
<path d="M1910 3866 l0 -26 93 0 c163 0 427 13 427 21 0 10 -100 17 -332 24
l-188 7 0 -26z"/>
<path d="M3503 3525 c-27 -19 -30 -57 -7 -79 24 -24 78 -20 111 8 l28 24 -21
29 c-25 34 -77 42 -111 18z"/>
<path d="M2220 2911 c0 -6 4 -12 9 -15 13 -8 42 4 35 15 -7 12 -44 12 -44 0z"/>
<path d="M2175 2870 c-8 -12 20 -24 35 -15 5 3 10 10 10 16 0 12 -37 12 -45
-1z"/>
<path d="M1715 2713 c-127 -4 -182 -16 -114 -27 19 -3 136 -8 262 -11 l227 -7
0 26 0 26 -122 -2 c-68 -1 -181 -4 -253 -5z"/>
<path d="M1766 2068 c-11 -16 -16 -46 -16 -98 0 -126 -13 -120 271 -120 147 0
248 4 260 10 17 10 19 22 19 108 0 63 -4 102 -12 110 -9 9 -80 12 -259 12
-245 0 -248 0 -263 -22z m498 6 c13 -5 16 -23 16 -98 0 -58 -4 -96 -12 -104
-16 -16 -450 -17 -479 -2 -17 9 -19 22 -19 98 0 55 4 92 12 100 13 13 451 18
482 6z"/>
<path d="M1840 1986 l0 -55 53 -4 52 -3 -52 -2 c-77 -3 -66 -22 12 -22 37 0
65 4 65 10 0 6 -5 10 -12 10 -9 0 -9 3 0 12 7 7 12 34 12 60 l0 48 -65 0 -65
0 0 -54z"/>
<path d="M2126 1997 c-10 -7 -17 -22 -15 -33 6 -26 79 -33 100 -8 12 14 10 19
-10 35 -27 22 -50 24 -75 6z"/>
</g>
</svg>
